<svg viewBox="0 0 71 71" fill="none" xmlns="http://www.w3.org/2000/svg">
<rect x="39.1905" y="2" width="29.8095" height="29.8095" rx="8" fill="#7945FF" stroke="black" stroke-width="4"/>
<rect x="2" y="2" width="29.8095" height="29.8095" rx="8" fill="#FD6687" stroke="black" stroke-width="4"/>
<path d="M13.8329 22.1429V20.8133L16.9394 17.9369C17.2036 17.6812 17.4252 17.4511 17.6042 17.2465C17.786 17.042 17.9238 16.8417 18.0175 16.6457C18.1113 16.4468 18.1581 16.2323 18.1581 16.0022C18.1581 15.7465 18.0999 15.5264 17.9834 15.3417C17.8669 15.1542 17.7079 15.0108 17.5061 14.9113C17.3044 14.809 17.0757 14.7579 16.8201 14.7579C16.553 14.7579 16.3201 14.8119 16.1212 14.9198C15.9223 15.0278 15.7689 15.1826 15.661 15.3843C15.553 15.586 15.499 15.8261 15.499 16.1045H13.7476C13.7476 15.5335 13.8769 15.0377 14.1354 14.6173C14.3939 14.1968 14.7561 13.8715 15.2221 13.6414C15.688 13.4113 16.2249 13.2963 16.8329 13.2963C17.4579 13.2963 18.0019 13.4071 18.465 13.6286C18.9309 13.8474 19.2931 14.1514 19.5516 14.5406C19.8101 14.9298 19.9394 15.3758 19.9394 15.8786C19.9394 16.2082 19.874 16.5335 19.7434 16.8545C19.6155 17.1755 19.3868 17.5321 19.0573 17.9241C18.7277 18.3133 18.2632 18.7806 17.6638 19.3261L16.3897 20.5747V20.6343H20.0544V22.1429H13.8329Z" fill="black"/>
<rect x="2" y="39.1905" width="29.8095" height="29.8095" rx="8" fill="#FCD065" stroke="black" stroke-width="4"/>
<path d="M12.991 57.7993V56.3461L16.6345 50.6061H17.8873V52.6174H17.1459L14.849 56.2524V56.3206H20.0265V57.7993H12.991ZM17.1799 59.3333V57.3561L17.214 56.7126V50.6061H18.9441V59.3333H17.1799Z" fill="black"/>
<rect x="39.1905" y="39.1905" width="29.8095" height="29.8095" rx="8" fill="#66FD7F" stroke="black" stroke-width="4"/>
<path d="M54.0915 59.4527C53.4353 59.4527 52.8515 59.3461 52.3401 59.1331C51.8316 58.9172 51.4324 58.6231 51.1426 58.251C50.8529 57.8788 50.708 57.4569 50.708 56.9853C50.708 56.6217 50.7904 56.2879 50.9551 55.9839C51.1228 55.6771 51.35 55.4228 51.637 55.2211C51.9239 55.0166 52.2449 54.8859 52.6 54.8291V54.7694C52.1341 54.6757 51.7563 54.4498 51.4665 54.0919C51.1767 53.7311 51.0319 53.312 51.0319 52.8348C51.0319 52.3831 51.164 51.9811 51.4282 51.6288C51.6924 51.2737 52.0546 50.9953 52.5148 50.7936C52.9779 50.589 53.5034 50.4868 54.0915 50.4868C54.6796 50.4868 55.2037 50.589 55.664 50.7936C56.127 50.9981 56.4907 51.2779 56.7549 51.6331C57.0191 51.9853 57.1526 52.3859 57.1554 52.8348C57.1526 53.3149 57.0049 53.7339 56.7122 54.0919C56.4196 54.4498 56.0446 54.6757 55.5872 54.7694V54.8291C55.9367 54.8859 56.2534 55.0166 56.5375 55.2211C56.8245 55.4228 57.0517 55.6771 57.2194 55.9839C57.3898 56.2879 57.4765 56.6217 57.4793 56.9853C57.4765 57.4569 57.3301 57.8788 57.0404 58.251C56.7506 58.6231 56.35 58.9172 55.8387 59.1331C55.3301 59.3461 54.7478 59.4527 54.0915 59.4527ZM54.0915 58.0975C54.3841 58.0975 54.6398 58.045 54.8586 57.9399C55.0773 57.8319 55.2478 57.6842 55.3699 57.4967C55.4949 57.3064 55.5574 57.0876 55.5574 56.8404C55.5574 56.5876 55.4935 56.3646 55.3657 56.1714C55.2378 55.9754 55.0645 55.822 54.8458 55.7112C54.627 55.5975 54.3756 55.5407 54.0915 55.5407C53.8103 55.5407 53.5588 55.5975 53.3372 55.7112C53.1157 55.822 52.9409 55.9754 52.8131 56.1714C52.6881 56.3646 52.6256 56.5876 52.6256 56.8404C52.6256 57.0876 52.6867 57.3064 52.8088 57.4967C52.931 57.6842 53.1029 57.8319 53.3245 57.9399C53.5461 58.045 53.8017 58.0975 54.0915 58.0975ZM54.0915 54.1984C54.3358 54.1984 54.5532 54.1487 54.7435 54.0493C54.9338 53.9498 55.083 53.812 55.1909 53.6359C55.2989 53.4598 55.3529 53.2566 55.3529 53.0265C55.3529 52.7993 55.2989 52.6004 55.1909 52.4299C55.083 52.2566 54.9353 52.1217 54.7478 52.0251C54.5603 51.9257 54.3415 51.876 54.0915 51.876C53.8444 51.876 53.6256 51.9257 53.4353 52.0251C53.2449 52.1217 53.0958 52.2566 52.9878 52.4299C52.8827 52.6004 52.8301 52.7993 52.8301 53.0265C52.8301 53.2566 52.8841 53.4598 52.9921 53.6359C53.1 53.812 53.2492 53.9498 53.4395 54.0493C53.6299 54.1487 53.8472 54.1984 54.0915 54.1984Z" fill="black"/>
</svg>
